<svg xmlns="http://www.w3.org/2000/svg" version="1.1" xmlns:xlink="http://www.w3.org/1999/xlink" xmlns:svgjs="http://svgjs.dev/svgjs" width="1000" height="1000" viewBox="0 0 1000 1000"><rect width="1000" height="1000" fill="#ffffff"></rect><g transform="matrix(0.7,0,0,0.7,150.42223835777122,384.2220685051242)"><svg viewBox="0 0 341 113" data-background-color="#282634" preserveAspectRatio="xMidYMid meet" height="331" width="1000" xmlns="http://www.w3.org/2000/svg" xmlns:xlink="http://www.w3.org/1999/xlink"><g id="tight-bounds" transform="matrix(1,0,0,1,-0.2056903999999804,-0.03514778195528834)"><svg viewBox="0 0 341.41138079999996 113.07029556391056" height="113.07029556391056" width="341.41138079999996"><g><svg viewBox="0 0 341.41138079999996 113.07029556391056" height="113.07029556391056" width="341.41138079999996"><g><svg viewBox="0 0 341.41138079999996 113.07029556391056" height="113.07029556391056" width="341.41138079999996"><g><svg viewBox="0 0 341.41138079999996 113.07029556391056" height="113.07029556391056" width="341.41138079999996"><g><path d="M0 113.07v-113.07h341.411v113.07z" fill="#ff4057" stroke="transparent" stroke-width="0" rx="0%" data-fill-palette-color="tertiary"></path><path d="M4.509 108.561v-104.052h332.393v104.052z" fill="#282634" stroke="transparent" stroke-width="0" rx="0%" data-fill-palette-color="quaternary"></path><path d="M13.527 99.543v-86.016h314.357v86.016z" fill="#ff4057" stroke="transparent" stroke-width="0" data-fill-palette-color="tertiary"></path></g><g transform="matrix(1,0,0,1,27.054309599999996,27.054309599999996)"><svg viewBox="0 0 287.30276159999994 58.96167636391057" height="58.96167636391057" width="287.30276159999994"><g><svg viewBox="0 0 287.30276159999994 58.96167636391057" height="58.96167636391057" width="287.30276159999994"><g transform="matrix(1,0,0,1,0,0)"><svg width="287.30276159999994" viewBox="4.449999809265137 -36.45000076293945 185.63999938964844 38.10000228881836" height="58.96167636391057" data-palette-color="#282634"><path d="M9.9 0L4.45 0 4.45-36.25 26.15-36.25 26.15-31.2 9.9-31.2 9.9-20.25 24.1-20.25 24.1-15.15 9.9-15.15 9.9 0ZM37.7-31.15L37.7-18.1 42.65-18.1Q44.65-18.1 46-18.8 47.35-19.5 48.12-20.5 48.9-21.5 49.22-22.65 49.55-23.8 49.55-24.7L49.55-24.7Q49.55-25.65 49.22-26.78 48.9-27.9 48.1-28.88 47.3-29.85 45.97-30.5 44.65-31.15 42.7-31.15L42.7-31.15 37.7-31.15ZM37.7 0L32.2 0 32.2-36.25 42.1-36.25Q44.95-36.25 47.32-35.5 49.7-34.75 51.42-33.27 53.15-31.8 54.1-29.68 55.05-27.55 55.05-24.8L55.05-24.8Q55.05-22.65 54.4-20.53 53.75-18.4 52.3-16.73 50.85-15.05 48.5-14 46.15-12.95 42.8-12.95L42.8-12.95 37.7-12.95 37.7 0ZM81.8-34.25L81.8-34.25 79.84-29.8Q77.8-30.55 75.77-31 73.75-31.45 71.89-31.45L71.89-31.45Q68.75-31.45 66.87-30.15 65-28.85 65-26.85L65-26.85Q65-25.15 66.34-24.13 67.69-23.1 69.69-22.28 71.69-21.45 74.05-20.63 76.39-19.8 78.39-18.5 80.39-17.2 81.75-15.23 83.09-13.25 83.09-10.15L83.09-10.15Q83.09-7.75 82.22-5.83 81.34-3.9 79.62-2.5 77.89-1.1 75.32-0.35 72.75 0.4 69.3 0.4L69.3 0.4Q67.09 0.4 65.32 0.1 63.55-0.2 62.12-0.68 60.7-1.15 59.62-1.7 58.55-2.25 57.8-2.7L57.8-2.7 60.2-7.45Q62.2-6.3 64.64-5.6 67.09-4.9 69.09-4.9L69.09-4.9Q70.09-4.9 71.57-5.15 73.05-5.4 74.39-6.03 75.75-6.65 76.72-7.7 77.69-8.75 77.69-10.35L77.69-10.35Q77.69-11.8 76.92-12.83 76.14-13.85 74.87-14.63 73.59-15.4 71.97-16.03 70.34-16.65 68.64-17.32 66.94-18 65.32-18.75 63.7-19.5 62.42-20.58 61.14-21.65 60.37-23.08 59.59-24.5 59.59-26.5L59.59-26.5Q59.59-28.35 60.34-30.15 61.09-31.95 62.59-33.35 64.09-34.75 66.32-35.6 68.55-36.45 71.5-36.45L71.5-36.45Q73.3-36.45 75.02-36.15 76.75-35.85 78.14-35.48 79.55-35.1 80.52-34.75 81.5-34.4 81.8-34.25ZM95.79 0L95.79-36.25 104.89-36.25Q110.39-36.25 114.19-34.6 117.99-32.95 120.37-30.28 122.74-27.6 123.81-24.28 124.89-20.95 124.89-17.65L124.89-17.65Q124.89-13.6 123.44-10.33 121.99-7.05 119.49-4.75 116.99-2.45 113.69-1.23 110.39 0 106.69 0L106.69 0 95.79 0ZM101.24-5.2L105.89-5.2Q108.79-5.2 111.27-6.05 113.74-6.9 115.56-8.53 117.39-10.15 118.42-12.53 119.44-14.9 119.44-18L119.44-18Q119.44-21.3 118.29-23.75 117.14-26.2 115.29-27.83 113.44-29.45 111.12-30.23 108.79-31 106.39-31L106.39-31 101.24-31 101.24-5.2ZM155.84 0L131.34 0 131.34-36.25 155.14-36.25 155.14-31.3 136.84-31.3 136.84-20.7 153.14-20.7 153.14-15.65 136.84-15.65 136.84-5.05 155.84-5.05 155.84 0ZM157.84-36.25L163.24-36.25Q163.59-35.4 164.39-33.48 165.19-31.55 166.21-29.1 167.24-26.65 168.36-23.9 169.49-21.15 170.49-18.7 171.49-16.25 172.29-14.33 173.09-12.4 173.44-11.55L173.44-11.55Q173.49-11.45 173.69-10.85 173.89-10.25 173.99-9.8L173.99-9.8 174.49-11.55Q174.84-12.4 175.64-14.33 176.44-16.25 177.44-18.7 178.44-21.15 179.56-23.9 180.69-26.65 181.71-29.1 182.74-31.55 183.54-33.48 184.34-35.4 184.69-36.25L184.69-36.25 190.09-36.25Q189.79-35.55 189.01-33.73 188.24-31.9 187.14-29.3 186.04-26.7 184.71-23.6 183.39-20.5 182.01-17.3 180.64-14.1 179.31-11 177.99-7.9 176.91-5.3 175.84-2.7 175.06-0.88 174.29 0.95 173.99 1.65L173.99 1.65 157.84-36.25Z" opacity="1" transform="matrix(1,0,0,1,0,0)" fill="#282634" class="undefined-text-0" data-fill-palette-color="quaternary" id="text-0"></path></svg></g></svg></g></svg></g></svg></g><g></g></svg></g></svg></g><defs></defs></svg><rect width="341.41138079999996" height="113.07029556391056" fill="none" stroke="none" visibility="hidden"></rect></g></svg></g></svg>